<svg width="373" height="156" viewBox="0 0 373 156" fill="none" xmlns="http://www.w3.org/2000/svg">
<g clip-path="url(#clip0_826_420)">
<path d="M63.4567 63.1992C66.2013 63.1411 68.9227 63.7286 71.4156 64.9173C73.5943 65.9784 75.4413 67.6506 76.7466 69.7436C78.0051 71.9227 78.6696 74.4135 78.6696 76.9517C78.6696 79.4899 78.0051 81.9807 76.7466 84.1598C75.4457 86.2567 73.5974 87.93 71.4156 88.9861C68.9252 90.1827 66.202 90.7705 63.4567 90.7041H51.375V63.1992H63.4567ZM56.102 89.0173L53.5195 86.4558H63.7739C65.6165 86.5003 67.4433 86.0936 69.1049 85.2687C70.5719 84.5273 71.8033 83.3676 72.6539 81.9263C73.4752 80.403 73.9064 78.6879 73.9064 76.9438C73.9064 75.1998 73.4752 73.4847 72.6539 71.9614C71.7931 70.5366 70.5637 69.3896 69.1049 68.6502C67.4445 67.82 65.6178 67.4079 63.7739 67.4476H53.5195L56.102 64.8861V89.0173Z" fill="black"/>
<path d="M290.332 63.1992C293.076 63.1411 295.798 63.7286 298.291 64.9173C300.469 65.9784 302.316 67.6506 303.622 69.7436C304.88 71.9227 305.545 74.4135 305.545 76.9517C305.545 79.4899 304.88 81.9807 303.622 84.1598C302.321 86.2567 300.472 87.93 298.291 88.9861C295.8 90.1827 293.077 90.7705 290.332 90.7041H278.25V63.1992H290.332ZM282.992 89.0173L280.394 86.4558H290.649C292.492 86.5003 294.318 86.0936 295.98 85.2687C297.45 84.5317 298.682 83.371 299.529 81.9263C300.36 80.4064 300.797 78.69 300.797 76.9438C300.797 75.1977 300.36 73.4813 299.529 71.9614C298.672 70.5333 297.441 69.3853 295.98 68.6502C294.32 67.82 292.493 67.4079 290.649 67.4476H280.394L282.992 64.8861V89.0173Z" fill="black"/>
<path d="M83.6019 64.7613C82.7357 64.7947 81.8874 64.5004 81.2158 63.9335C80.9173 63.6623 80.6781 63.3284 80.5142 62.9541C80.3504 62.5797 80.2656 62.1734 80.2656 61.7625C80.2656 61.3515 80.3504 60.9453 80.5142 60.5709C80.6781 60.1966 80.9173 59.8627 81.2158 59.5915C81.9062 59.0554 82.7462 58.7656 83.6095 58.7656C84.4728 58.7656 85.3128 59.0554 86.0032 59.5915C86.2933 59.8679 86.5249 60.2036 86.6833 60.5772C86.8417 60.9509 86.9235 61.3545 86.9235 61.7625C86.9235 62.1705 86.8417 62.5741 86.6833 62.9478C86.5249 63.3214 86.2933 63.6571 86.0032 63.9335C85.327 64.5027 84.4731 64.7971 83.6019 64.7613ZM81.0497 67.6352H86.1391V90.7199H81.0497V67.6352Z" fill="black"/>
<path d="M114.487 83.7852C114.515 85.2257 114.073 86.634 113.233 87.7836C112.251 89.0331 110.923 89.943 109.428 90.392C107.367 91.0596 105.213 91.3709 103.055 91.3135C100.73 91.3621 98.4132 91.0138 96.1981 90.2826C94.4617 89.7475 92.8967 88.7386 91.6675 87.3619C90.6265 86.1585 90.0231 84.6177 89.9609 83.0042H95.1259C95.2858 83.8958 95.733 84.705 96.3945 85.3002C97.1807 86.0349 98.1219 86.5697 99.1431 86.8621C100.409 87.2376 101.722 87.4166 103.039 87.3931C104.667 87.4815 106.294 87.21 107.812 86.5966C108.285 86.414 108.692 86.0852 108.979 85.6549C109.265 85.2246 109.417 84.7136 109.413 84.1913C109.414 83.8362 109.312 83.4889 109.121 83.1938C108.93 82.8988 108.658 82.6696 108.34 82.5357C107.045 82.0231 105.678 81.7328 104.293 81.6766L99.9435 81.2706C98.0314 81.1699 96.1508 80.7259 94.3859 79.9586C93.2132 79.4587 92.2059 78.6177 91.4862 77.5376C90.9149 76.6036 90.616 75.519 90.6254 74.4138C90.5851 72.9636 91.0883 71.5533 92.0299 70.4779C93.1147 69.3451 94.461 68.5172 95.9414 68.0726C97.8376 67.4912 99.8084 67.212 101.786 67.2448C103.875 67.209 105.955 67.5472 107.933 68.2444C109.559 68.7926 111.034 69.7351 112.237 70.9933C113.27 72.0924 113.905 73.5269 114.034 75.0542H108.929C108.794 74.3768 108.475 73.7536 108.008 73.258C107.359 72.5928 106.567 72.0952 105.697 71.8055C104.361 71.3643 102.961 71.1636 101.559 71.212C100.101 71.1489 98.6459 71.3988 97.2855 71.9461C96.8521 72.0997 96.4747 72.3873 96.2046 72.77C95.9345 73.1527 95.7846 73.6121 95.7753 74.0858C95.7809 74.4093 95.8709 74.7251 96.0357 75C96.2005 75.2749 96.434 75.4987 96.7116 75.6477C97.7996 76.1969 98.9898 76.4953 100.2 76.5224L105.803 77.0534C107.609 77.1622 109.385 77.5791 111.059 78.2873C112.168 78.7532 113.108 79.5671 113.747 80.6145C114.261 81.585 114.516 82.6792 114.487 83.7852Z" fill="black"/>
<path d="M143.059 81.7072C142.815 83.554 142.072 85.2921 140.914 86.7208C139.679 88.1958 138.128 89.3512 136.383 90.0945C134.47 90.9184 132.415 91.3328 130.343 91.3128C128.006 91.3428 125.694 90.8079 123.592 89.7509C121.735 88.7961 120.168 87.3319 119.061 85.5182C118.207 84.1312 117.645 82.5737 117.412 80.9473C117.178 79.3208 117.279 77.6618 117.706 76.078C118.133 74.4942 118.878 73.0212 119.892 71.7549C120.906 70.4885 122.167 69.4572 123.592 68.7279C125.691 67.663 128.005 67.1278 130.343 67.166C132.415 67.1459 134.47 67.5604 136.383 68.3842C138.128 69.1276 139.679 70.283 140.914 71.7579C142.078 73.1949 142.821 74.9447 143.059 76.8028H137.939C137.78 75.9829 137.466 75.2036 137.015 74.5094C136.564 73.8152 135.985 73.2199 135.311 72.7575C133.823 71.7525 132.074 71.2403 130.297 71.2893C128.874 71.2606 127.465 71.5874 126.19 72.2421C125.044 72.8507 124.098 73.7963 123.471 74.9598C122.834 76.2678 122.502 77.7122 122.502 79.1769C122.502 80.6416 122.834 82.0859 123.471 83.394C124.084 84.5722 125.033 85.5266 126.19 86.1273C127.639 86.8378 129.239 87.1601 130.841 87.0646C132.442 86.9691 133.995 86.4588 135.357 85.5806C136.018 85.1272 136.586 84.5434 137.029 83.8627C137.472 83.182 137.782 82.4177 137.939 81.6135L143.059 81.7072Z" fill="black"/>
<path d="M159.19 91.3116C156.75 91.3468 154.334 90.813 152.122 89.7497C150.199 88.817 148.563 87.3521 147.395 85.517C146.278 83.6234 145.688 81.4484 145.688 79.2304C145.688 77.0125 146.278 74.8373 147.395 72.9438C148.564 71.1134 150.2 69.6537 152.122 68.7267C154.353 67.7268 156.758 67.2109 159.19 67.2109C161.621 67.2109 164.027 67.7268 166.258 68.7267C168.184 69.6527 169.826 71.1123 171 72.9438C172.116 74.8373 172.707 77.0125 172.707 79.2304C172.707 81.4484 172.116 83.6234 171 85.517C169.826 87.3526 168.185 88.8174 166.258 89.7497C164.045 90.813 161.629 91.3468 159.19 91.3116ZM159.19 87.1726C160.723 87.22 162.245 86.888 163.63 86.2042C164.827 85.6007 165.828 84.6513 166.514 83.4709C167.179 82.1829 167.527 80.7452 167.527 79.285C167.527 77.8249 167.179 76.3872 166.514 75.0992C165.833 73.9154 164.83 72.9649 163.63 72.3659C162.236 71.7171 160.725 71.3816 159.197 71.3816C157.669 71.3816 156.158 71.7171 154.765 72.3659C153.558 72.96 152.549 73.9113 151.865 75.0992C151.201 76.3876 150.854 77.8251 150.854 79.285C150.854 80.7449 151.201 82.1825 151.865 83.4709C152.553 84.6553 153.561 85.6055 154.765 86.2042C156.145 86.8833 157.662 87.2151 159.19 87.1726Z" fill="black"/>
<path d="M188.051 88.3982H186.088L195.149 67.8281H200.601L189.788 90.7567H184.14L173.281 67.8906H178.884L188.051 88.3982Z" fill="black"/>
<path d="M214.55 91.3144C212.165 91.342 209.805 90.8079 207.649 89.7525C205.731 88.811 204.097 87.3479 202.922 85.5198C201.753 83.6347 201.154 81.4327 201.2 79.1941C201.139 77.0262 201.683 74.886 202.768 73.0299C203.853 71.1739 205.432 69.6808 207.316 68.7295C209.364 67.6701 211.627 67.1344 213.916 67.1676C216.178 67.1125 218.41 67.7072 220.365 68.8857C222.183 70.0514 223.64 71.7317 224.563 73.7275C225.61 76.0146 226.127 78.5228 226.073 81.0527H205.187V77.0543H223.506L220.969 78.5381C220.932 77.1784 220.574 75.8486 219.927 74.6646C219.347 73.6109 218.494 72.7454 217.465 72.1656C216.333 71.5582 215.07 71.2573 213.795 71.2909C212.441 71.2599 211.101 71.5822 209.899 72.2281C208.816 72.8314 207.916 73.7346 207.301 74.8365C206.655 76.0609 206.332 77.4401 206.365 78.8349C206.322 80.3834 206.71 81.9121 207.483 83.2394C208.236 84.5017 209.342 85.4982 210.654 86.0977C212.186 86.7889 213.846 87.1248 215.517 87.0817C217.284 87.0774 219.04 86.7984 220.727 86.2539C222.407 85.753 223.994 84.9665 225.424 83.9266V87.7376C223.932 88.8832 222.254 89.7453 220.47 90.2835C218.559 90.9371 216.563 91.2847 214.55 91.3144Z" fill="black"/>
<path d="M229.188 67.8849H234.277L235.606 76.2253V90.8134H230.516V75.1945L229.188 67.8849ZM246.842 67.7287V72.3363C246.227 72.1691 245.601 72.049 244.969 71.977C244.333 71.8994 243.692 71.8577 243.051 71.8521C241.711 71.8265 240.388 72.1659 239.215 72.8361C238.069 73.4964 237.146 74.505 236.572 75.7255C235.891 77.1843 235.559 78.7917 235.606 80.4112L234.428 78.8493C234.521 77.3006 234.794 75.7692 235.243 74.2886C235.633 72.9572 236.241 71.705 237.041 70.5869C237.792 69.5501 238.763 68.7058 239.88 68.1191C241.096 67.5022 242.437 67.1968 243.791 67.2288C244.327 67.2274 244.862 67.2639 245.392 67.3382C245.885 67.3958 246.371 67.5057 246.842 67.6662V67.7287Z" fill="black"/>
<path d="M257.929 90.0226L247.75 67.8906H253.338L262.973 90.0851L257.929 90.0226ZM255.377 98.0039C254.18 98.0192 252.988 97.8454 251.843 97.4885C250.781 97.1652 249.765 96.6978 248.822 96.0984V92.0843C249.705 92.6843 250.659 93.1622 251.661 93.5056C252.64 93.812 253.659 93.9595 254.682 93.9429C255.681 93.9623 256.667 93.7033 257.536 93.1933C258.474 92.5704 259.198 91.6576 259.605 90.5849L269.663 67.8906H275.07L263.607 92.4279C263.066 93.6468 262.313 94.7531 261.387 95.6922C260.593 96.486 259.646 97.0981 258.608 97.4885C257.568 97.8534 256.475 98.0278 255.377 98.0039Z" fill="black"/>
<path d="M320.494 91.3116C318.054 91.3468 315.639 90.813 313.426 89.7497C311.499 88.8174 309.858 87.3526 308.684 85.517C307.567 83.6234 306.977 81.4484 306.977 79.2304C306.977 77.0125 307.567 74.8373 308.684 72.9438C309.858 71.1123 311.499 69.6527 313.426 68.7267C315.657 67.7268 318.063 67.2109 320.494 67.2109C322.925 67.2109 325.331 67.7268 327.562 68.7267C329.484 69.6537 331.12 71.1134 332.289 72.9438C333.405 74.8373 333.996 77.0125 333.996 79.2304C333.996 81.4484 333.405 83.6234 332.289 85.517C331.133 87.3455 329.514 88.8099 327.607 89.7497C325.381 90.8199 322.949 91.3539 320.494 91.3116ZM320.494 87.1726C322.027 87.22 323.55 86.888 324.934 86.2042C326.127 85.6005 327.124 84.6507 327.803 83.4709C328.477 82.1859 328.83 80.747 328.83 79.285C328.83 77.823 328.477 76.3842 327.803 75.0992C327.128 73.9159 326.13 72.9651 324.934 72.3659C323.54 71.7171 322.03 71.3816 320.501 71.3816C318.973 71.3816 317.462 71.7171 316.069 72.3659C314.862 72.96 313.853 73.9113 313.169 75.0992C312.506 76.3876 312.158 77.8251 312.158 79.285C312.158 80.7449 312.506 82.1825 313.169 83.4709C313.857 84.6553 314.865 85.6055 316.069 86.2042C317.449 86.885 318.966 87.2169 320.494 87.1726Z" fill="black"/>
<path d="M335.156 71.8867V69.4501L339.898 68.185L342.013 61.7969H345.033V67.8882H355.333V71.9492H345.033V81.8672C344.96 82.5873 345.028 83.3153 345.233 84.0076C345.438 84.7 345.776 85.3425 346.226 85.8968C347.343 86.7632 348.732 87.1696 350.122 87.037C351.141 87.049 352.156 86.923 353.143 86.6621C354.037 86.402 354.895 86.0241 355.695 85.5376V89.7547C354.768 90.1891 353.802 90.5291 352.811 90.7699C351.56 91.0894 350.278 91.2519 348.99 91.2541C347.182 91.3305 345.383 90.9499 343.749 90.1452C342.48 89.4533 341.458 88.3584 340.835 87.0214C340.195 85.6104 339.88 84.0655 339.913 82.5075V71.793L335.156 71.8867Z" fill="black"/>
<path d="M361.781 91.0671C361.213 91.0764 360.655 90.9252 360.165 90.6298C359.685 90.3371 359.285 89.9233 359.002 89.4271C358.724 88.9142 358.578 88.336 358.578 87.7481C358.578 87.1601 358.724 86.5821 359.002 86.0691C359.286 85.5778 359.686 85.1693 360.165 84.882C360.658 84.5858 361.218 84.4297 361.788 84.4297C362.358 84.4297 362.919 84.5858 363.412 84.882C363.887 85.1735 364.286 85.5811 364.575 86.0691C364.852 86.5821 364.998 87.1601 364.998 87.7481C364.998 88.336 364.852 88.9142 364.575 89.4271C364.287 89.9197 363.888 90.3324 363.412 90.6298C362.917 90.9272 362.353 91.0785 361.781 91.0671Z" fill="black"/>
<path d="M44.3528 76.6641C43.6755 80.152 42.3746 83.4785 40.5168 86.4727C38.8589 89.1667 36.601 91.4108 33.9323 93.017C31.2247 94.5537 28.186 95.3593 25.0975 95.3593C22.009 95.3593 18.9704 94.5537 16.2628 93.017C13.6955 91.4508 11.6031 89.1732 10.2219 86.4415C8.78061 83.4032 8.03125 80.0639 8.03125 76.6797C8.03125 73.2954 8.78061 69.9562 10.2219 66.9179C11.6092 64.203 13.7012 61.942 16.2628 60.3892C18.9704 58.8525 22.009 58.0469 25.0975 58.0469C28.186 58.0469 31.2247 58.8525 33.9323 60.3892C36.5999 61.9878 38.866 64.2137 40.547 66.8866C42.4267 69.8543 43.7201 73.1772 44.3528 76.6641ZM16.0211 76.6641C15.9796 78.8636 16.473 81.0387 17.4558 82.9897C18.3567 84.7594 19.7095 86.2396 21.3673 87.2693C23.1018 88.3198 25.0811 88.8599 27.091 88.8312C29.1982 88.8325 31.2732 88.296 33.1319 87.2693C35.0457 86.2036 36.7308 84.7478 38.0854 82.9897C39.5659 81.0943 40.7297 78.9563 41.5287 76.6641C40.726 74.3974 39.5621 72.2857 38.0854 70.4165C36.7308 68.6585 35.0457 67.2026 33.1319 66.1369C31.2757 65.1035 29.199 64.5666 27.091 64.575C25.0802 64.539 23.0991 65.0796 21.3673 66.1369C19.7095 67.1666 18.3567 68.6468 17.4558 70.4165C16.481 72.3426 15.9878 74.4903 16.0211 76.6641Z" fill="black"/>
</g>
<defs>
<clipPath id="clip0_826_420">
<rect width="357" height="40" fill="white" transform="translate(8 58)"/>
</clipPath>
</defs>
</svg>
