<svg width="373" height="156" viewBox="0 0 373 156" fill="none" xmlns="http://www.w3.org/2000/svg">
<g clip-path="url(#clip0_826_442)">
<path fill-rule="evenodd" clip-rule="evenodd" d="M129.268 80.858C129.278 85.7555 127.572 89.4158 124.148 91.8524C121.63 93.6222 118.725 94.5069 115.443 94.5136L114.727 94.5155C109.585 94.5254 105.343 92.6968 102 89.0424L104.277 86.4684C106.718 90.2173 109.915 92.0924 113.867 92.0857H114.152C116.341 92.082 118.141 91.2905 119.537 89.7119C120.938 88.1406 121.635 86.1597 121.627 83.7832L121.63 83.4966C121.623 81.2626 121.005 79.269 119.761 77.5092C118.712 76.077 116.652 74.0857 113.6 71.5203C110.351 68.8202 108.159 66.7615 107.012 65.3335C105.197 63.0488 104.283 60.6782 104.277 58.1996V57.5541C104.268 53.1294 105.852 49.8009 109.033 47.5565C111.462 45.8884 114.294 45.0439 117.529 45.0399L118.175 45.0313C122.316 45.0258 125.534 45.9395 127.82 47.7771L126.183 50.4812C124.316 48.3014 121.928 47.2066 119.013 47.217H118.801C116.606 47.2228 114.861 47.9845 113.576 49.5129C112.291 51.0377 111.654 52.9156 111.661 55.1578V55.5049C111.661 57.1721 112.182 58.7195 113.215 60.1435C114.239 61.5656 116.118 63.3937 118.845 65.6188C122.48 68.5616 124.875 70.7451 126.024 72.1609C128.177 74.6788 129.256 77.3157 129.263 80.0728L129.268 80.858Z" fill="black"/>
<path fill-rule="evenodd" clip-rule="evenodd" d="M270.635 93.7604H263.331V74.6213C263.318 69.2772 261.821 66.6123 258.823 66.6218C256.774 66.6245 255.04 67.4179 253.756 68.9874V93.7604H246.586V45H253.756V67.3062C255.996 65.2869 258.73 64.267 261.828 64.2571C267.685 64.2512 270.618 67.1471 270.635 72.9578V93.7604Z" fill="black"/>
<path fill-rule="evenodd" clip-rule="evenodd" d="M239.622 85.584C239.628 88.9636 238.378 91.3866 235.849 92.8707C234.096 93.9127 231.961 94.4457 229.43 94.4488C225.812 94.4556 222.828 93.306 220.484 90.9888L222.129 88.7855C223.993 91.2225 226.175 92.4422 228.693 92.4354C230.07 92.4354 231.153 92.0141 231.955 91.1809C232.766 90.3446 233.177 89.2638 233.171 87.932C233.16 86.6911 232.736 85.547 231.882 84.4996C231.215 83.7442 229.957 82.7022 228.111 81.3618C224.13 78.4759 222.143 75.6745 222.132 72.955C222.129 69.8123 223.263 67.482 225.534 65.9522C227.247 64.8519 229.309 64.2945 231.732 64.2891C234.623 64.2841 236.977 65.0314 238.792 66.5118L237.371 68.6799C236.275 66.9775 234.657 66.1339 232.53 66.1434C229.724 66.1466 228.33 67.6488 228.337 70.6427C228.347 72.1616 229.673 73.916 232.338 75.9078C234.764 77.6622 236.459 79.1052 237.402 80.2444C238.878 81.9482 239.614 83.7387 239.622 85.584Z" fill="black"/>
<path fill-rule="evenodd" clip-rule="evenodd" d="M213.745 74.7613C213.728 67.8133 209.672 64.3519 201.679 64.3672C197.387 64.3808 194.064 65.8102 191.689 68.6586L193.535 70.1404C195.053 67.5375 197.177 66.2293 199.929 66.2189C204.341 66.2094 206.554 69.3728 206.572 75.6899V80.0427C205.01 79.3913 203.16 79.0626 201.025 79.0694C198.463 79.073 196.354 79.5798 194.7 80.5874C192.377 82.0272 191.227 84.1555 191.227 86.9673C191.235 89.3582 192.31 91.2668 194.456 92.6876C195.892 93.6419 197.749 94.1093 200.039 94.1029C202.803 94.1016 204.985 93.414 206.606 92.0398L206.609 93.7585L213.749 93.7431L213.745 74.7613ZM202.895 91.9213C201.656 91.925 200.607 91.5665 199.754 90.8558C198.607 89.8997 198.038 88.4722 198.038 86.5717C198.028 84.6663 198.589 83.2093 199.733 82.2017C200.631 81.3451 201.724 80.9165 203.012 80.9147C204.441 80.9061 205.63 81.1448 206.578 81.6158L206.606 90.6226C205.65 91.4792 204.416 91.9182 202.895 91.9213Z" fill="black"/>
<path fill-rule="evenodd" clip-rule="evenodd" d="M186.714 92.6452C185.387 93.7469 183.459 94.2984 180.934 94.3016C177.983 94.3106 175.884 93.387 174.644 91.5345C173.598 90.0129 173.065 87.6753 173.055 84.5218V45H180.358V84.0065C180.369 87.0651 180.515 89.1183 180.804 90.1603C181.188 91.6887 182.018 92.4463 183.298 92.4427C184.247 92.4427 185.124 92.0178 185.929 91.1435L186.714 92.6452Z" fill="black"/>
<path fill-rule="evenodd" clip-rule="evenodd" d="M163.133 69.0207C160.736 66.1674 157.218 64.7484 152.585 64.7579C149.092 64.7646 146.154 65.732 143.768 67.6411V65.374H136.461V110.808H143.768V92.6424C146.255 93.8277 148.851 94.4172 151.432 94.4104C156.121 94.3986 159.817 92.9403 162.535 90.0268C165.115 87.3077 166.395 83.7776 166.386 79.4487C166.376 75.0602 165.295 71.5848 163.133 69.0207ZM156.235 88.6716C154.515 91.1511 152.172 92.3884 149.212 92.4024C147.108 92.4055 145.256 91.9051 143.768 90.9115V69.4868C145.204 67.9087 146.999 67.1217 149.152 67.1203C152.21 67.1063 154.604 68.3915 156.333 70.9632C157.821 73.2936 158.571 76.2098 158.577 79.7385C158.589 83.354 157.806 86.3272 156.235 88.6716Z" fill="black"/>
</g>
<defs>
<clipPath id="clip0_826_442">
<rect width="169" height="66" fill="white" transform="translate(102 45)"/>
</clipPath>
</defs>
</svg>
