<svg width="373" height="156" viewBox="0 0 373 156" fill="none" xmlns="http://www.w3.org/2000/svg">
<g clip-path="url(#clip0_818_395)">
<path d="M117.033 89.2803C117.696 91.0571 118.615 92.5763 119.789 93.8379C120.962 95.0996 122.353 96.0652 123.96 96.7347C125.568 97.4042 127.316 97.7389 129.204 97.7389C131.041 97.7389 132.764 97.3912 134.371 96.6959C135.979 96.0006 137.382 95.0222 138.581 93.7606C139.781 92.4988 140.712 90.9926 141.375 89.2417C142.039 87.4907 142.371 85.5339 142.371 83.3709V50H150.408V104.073H142.447V99.052C140.661 100.957 138.556 102.425 136.132 103.455C133.708 104.485 131.092 105 128.286 105C125.428 105 122.761 104.498 120.286 103.494C117.811 102.489 115.668 101.06 113.856 99.2065C112.044 97.3524 110.615 95.1254 109.569 92.5246C108.523 89.924 108 87.0273 108 83.8343V50H116.038V83.3709C116.038 85.5339 116.369 87.5035 117.033 89.2803Z" fill="#010202"/>
<path d="M164.263 50V69.698C166.049 67.8956 168.116 66.4667 170.463 65.4108C172.811 64.355 175.362 63.8272 178.118 63.8272C180.976 63.8272 183.655 64.3679 186.156 65.4493C188.656 66.5307 190.825 67.9985 192.662 69.8525C194.499 71.7066 195.954 73.8951 197.026 76.4185C198.097 78.942 198.633 81.6199 198.633 84.4523C198.633 87.2846 198.097 89.9496 197.026 92.4472C195.954 94.9449 194.499 97.1208 192.662 98.9745C190.825 100.829 188.656 102.296 186.156 103.378C183.655 104.459 180.976 105 178.118 105C175.362 105 172.798 104.472 170.425 103.416C168.052 102.361 165.972 100.931 164.186 99.129V104.073H156.531V50H164.263ZM165.143 89.7823C165.832 91.4304 166.789 92.8723 168.014 94.1083C169.238 95.3442 170.667 96.3228 172.3 97.0437C173.933 97.7647 175.694 98.1252 177.582 98.1252C179.419 98.1252 181.154 97.7647 182.787 97.0437C184.42 96.3228 185.836 95.3444 187.036 94.1083C188.235 92.8725 189.192 91.4304 189.907 89.7823C190.621 88.1344 190.978 86.3578 190.978 84.4523C190.978 82.5468 190.621 80.7572 189.907 79.0835C189.192 77.4098 188.235 75.9551 187.036 74.7191C185.837 73.4833 184.421 72.5176 182.787 71.8224C181.154 71.1273 179.419 70.7795 177.582 70.7795C175.745 70.7795 174.01 71.1271 172.377 71.8224C170.744 72.5178 169.315 73.4833 168.09 74.7191C166.866 75.9551 165.896 77.4098 165.181 79.0835C164.467 80.7572 164.11 82.5468 164.11 84.4523C164.11 86.3578 164.454 88.1344 165.143 89.7823Z" fill="#010202"/>
<path d="M202.999 76.4973C204.02 74.0254 205.424 71.8497 207.21 69.97C208.996 68.0903 211.114 66.6098 213.563 65.5283C216.013 64.4469 218.666 63.9062 221.524 63.9062C224.331 63.9062 226.934 64.4212 229.332 65.4511C231.731 66.4811 233.798 67.9102 235.533 69.7384C237.268 71.5665 238.62 73.7295 239.59 76.2271C240.559 78.7248 241.044 81.4414 241.044 84.3768V86.926H209.277C209.532 88.5225 210.042 90.003 210.808 91.3675C211.573 92.7322 212.53 93.9167 213.678 94.9209C214.826 95.9253 216.128 96.7107 217.582 97.277C219.037 97.8434 220.58 98.1268 222.213 98.1268C226.857 98.1268 230.608 96.1955 233.466 92.3331L239.054 96.5044C237.115 99.1308 234.716 101.191 231.859 102.684C229.001 104.178 225.786 104.924 222.213 104.924C219.305 104.924 216.587 104.409 214.061 103.379C211.535 102.35 209.341 100.907 207.478 99.0534C205.615 97.1994 204.148 95.0236 203.076 92.5261C202.005 90.0285 201.469 87.3118 201.469 84.3765C201.468 81.5957 201.979 78.9693 202.999 76.4973ZM213.755 73.446C211.586 75.2742 210.144 77.7075 209.43 80.7459H233.236C232.573 77.7075 231.157 75.2742 228.988 73.446C226.819 71.6179 224.28 70.7038 221.371 70.7038C218.462 70.7038 215.924 71.6179 213.755 73.446Z" fill="#010202"/>
<path d="M255.509 74.3322C253.876 76.1346 253.06 78.5807 253.06 81.6707V104.073H245.328V64.6764H252.983V69.543C253.953 67.9465 255.216 66.6848 256.772 65.7578C258.329 64.8307 260.179 64.3672 262.322 64.3672H265.001V71.6285H261.786C259.235 71.6286 257.142 72.5297 255.509 74.3322Z" fill="#010202"/>
</g>
<defs>
<clipPath id="clip0_818_395">
<rect width="157" height="55" fill="white" transform="translate(108 50)"/>
</clipPath>
</defs>
</svg>
